<?xml version="1.0" encoding="utf-8"?>
<!-- Generator: Adobe Illustrator 22.1.0, SVG Export Plug-In . SVG Version: 6.00 Build 0)  -->
<svg version="1.1" id="Layer_1" xmlns="http://www.w3.org/2000/svg" xmlns:xlink="http://www.w3.org/1999/xlink" x="0px" y="0px"
	 viewBox="0 0 512 512" style="enable-background:new 0 0 512 512;" xml:space="preserve">
<g>
	<path d="M33,393.3c-4,6.7-1.8,15.4,4.8,19.5l93.1,57.3c6.8,4.1,15.6,2.1,19.7-4.7c0-0.1,0.1-0.2,0.1-0.2
		c59-98.6,70.8-84.3,246.9-0.6c7.1,3.4,15.6,0.4,19.1-6.8c0.1-0.1,0.1-0.3,0.2-0.4l44.3-100.3c3.2-7.1-0.1-15.5-7.1-18.7
		c-19.5-9.1-58.2-27.4-93.1-44.2C143,188.3,70.2,334.5,33,393.3z M479,118.9c4-6.7,1.8-15.4-4.8-19.5l-93-57.2
		c-6.6-4.4-15.5-2.7-19.9,3.9c-0.2,0.3-0.4,0.5-0.5,0.9c-59.2,99-71.3,84-246.7,0.8c-7.1-3.4-15.6-0.4-19.1,6.8
		c-0.1,0.1-0.1,0.3-0.2,0.4L50.5,155.2c-3.2,7.1,0.1,15.5,7.1,18.7c19.5,9.1,58.3,27.4,93.2,44.3C368.8,323.7,441.6,178.3,479,118.9
		L479,118.9z"/>
</g>
</svg>
